<?xml version="1.0" encoding="UTF-8" standalone="no"?>
<!-- Created with Inkscape (http://www.inkscape.org/) -->

<svg
   width="60.427345mm"
   height="50.665005mm"
   viewBox="0 0 60.427345 50.665005"
   version="1.1"
   id="svg1"
   xmlns="http://www.w3.org/2000/svg"
   xmlns:svg="http://www.w3.org/2000/svg">
  <defs
     id="defs1" />
  <g
     id="layer1"
     transform="translate(-31.565929,-17.827747)">
    <path
       style="fill:none;stroke:#000000;stroke-width:0.264583"
       d="M 57.997042,47.122595 51.497372,33.248303 57.247078,17.874088 Z"
       id="path1" />
    <path
       style="fill:none;stroke:#000000;stroke-width:0.264583"
       d="M 58.247028,46.62262 76.746083,34.49824 91.620326,46.497628 Z"
       id="path2" />
    <path
       style="fill:none;stroke:#000000;stroke-width:0.264583"
       d="m 58.122033,46.497628 -26.498647,0.499973 13.999286,6.749656 z"
       id="path3" />
    <path
       style="fill:none;stroke:#000000;stroke-width:0.264583"
       d="M 57.872047,47.122595 56.622111,67.996529 66.121626,53.247284 Z"
       id="path4" />
    <path
       style="fill:none;stroke:#000000;stroke-width:0.264583"
       d="M 57.747053,46.372634 72.496301,31.123411 59.621956,35.373196 Z"
       id="path5" />
    <path
       style="fill:none;stroke:#000000;stroke-width:0.264583"
       d="M 57.872047,46.62262 46.747615,34.373245 45.497678,42.747818 58.871995,47.122595 Z"
       id="path6" />
    <path
       style="fill:none;stroke:#000000;stroke-width:0.264583"
       d="m 56.997091,46.372634 -7.999592,9.99949 7.124636,-0.124994 z"
       id="path7" />
    <path
       style="fill:none;stroke:#000000;stroke-width:0.264583"
       d="m 58.247028,46.122648 10.874444,2.12489 2.374878,7.874597 z"
       id="path8" />
    <path
       style="fill:none;stroke:#000000;stroke-width:0.264583"
       d="m 59.746951,23.498801 c 0,2.624866 0.499975,8.62456 0.499975,8.62456 l 11.124433,-2.624868 z"
       id="path9" />
    <path
       style="fill:none;stroke:#000000;stroke-width:0.264583"
       d="m 48.497526,58.372022 h 7.124637 l -0.499975,7.749604 z"
       id="path10" />
    <path
       style="fill:none;stroke:#000000;stroke-width:0.264583"
       d="M 45.247692,34.49824 33.87327,39.497984 43.997755,41.997857 Z"
       id="path11" />
    <path
       style="fill:none;stroke:#000000;stroke-width:0.264583"
       d="m 71.246364,48.622518 1.499923,7.624612 11.374421,-6.249681 z"
       id="path12" />
  </g>
</svg>
